name analog
datacolumns 19
datarows 59
range 0.34850000000000003 0.3775
endheader
time	ground_force_vx	ground_force_vy	ground_force_vz	ground_force_px	ground_force_py	ground_force_pz	l_ground_force_vx	l_ground_force_vy	l_ground_force_vz	l_ground_force_px	l_ground_force_py	l_ground_force_pz	ground_torque_x	ground_torque_y	ground_torque_z	l_ground_torque_x	l_ground_torque_y	l_ground_torque_z
0.34850000000000003	-0.0	-0.0	-0.0	-0.0	-0.0	-0.0	3.7258317470550537	5.97491455078125	-761.587158203125	-0.0	-0.0	-0.0	-0.0	-0.0	-0.0	238389.59375	23230.666015625	1437.00439453125
0.34900000000000003	-0.0	-0.0	-0.0	-0.0	-0.0	-0.0	5.0742034912109375	5.679882526397705	-762.71630859375	-0.0	-0.0	-0.0	-0.0	-0.0	-0.0	238762.390625	22661.3046875	2098.383544921875
0.34950000000000003	-0.0	-0.0	-0.0	-0.0	-0.0	-0.0	6.0984086990356445	5.475944519042969	-763.9615478515625	-0.0	-0.0	-0.0	-0.0	-0.0	-0.0	238496.421875	22180.236328125	2206.92236328125
0.35000000000000003	-0.0	-0.0	-0.0	-0.0	-0.0	-0.0	5.837368011474609	4.891211032867432	-761.7554931640625	-0.0	-0.0	-0.0	-0.0	-0.0	-0.0	238057.390625	21912.859375	2269.323486328125
0.35050000000000003	-0.0	-0.0	-0.0	-0.0	-0.0	-0.0	5.287559986114502	4.60205078125	-762.0049438476562	-0.0	-0.0	-0.0	-0.0	-0.0	-0.0	237454.078125	21798.369140625	2111.065673828125
0.35100000000000003	-0.0	-0.0	-0.0	-0.0	-0.0	-0.0	4.993521690368652	4.253523349761963	-762.1293334960938	-0.0	-0.0	-0.0	-0.0	-0.0	-0.0	236658.75	21112.50390625	2099.418212890625
0.35150000000000003	-0.0	-0.0	-0.0	-0.0	-0.0	-0.0	5.564858436584473	3.90997052192688	-761.42431640625	-0.0	-0.0	-0.0	-0.0	-0.0	-0.0	236395.53125	20925.841796875	2111.09765625
0.352	-0.0	-0.0	-0.0	-0.0	-0.0	-0.0	5.715854167938232	3.484570026397705	-760.074462890625	-0.0	-0.0	-0.0	-0.0	-0.0	-0.0	235874.296875	20512.48046875	2332.35595703125
0.3525	-0.0	-0.0	-0.0	-0.0	-0.0	-0.0	5.906615257263184	3.5279760360717773	-760.0259399414062	-0.0	-0.0	-0.0	-0.0	-0.0	-0.0	235394.046875	20214.193359375	2550.47607421875
0.353	-0.0	-0.0	-0.0	-0.0	-0.0	-0.0	5.957276821136475	3.129258155822754	-760.0200805664062	-0.0	-0.0	-0.0	-0.0	-0.0	-0.0	234602.828125	19855.04296875	2558.240478515625
0.3535	-0.0	-0.0	-0.0	-0.0	-0.0	-0.0	6.470888614654541	2.20804214477539	-757.9295043945312	-0.0	-0.0	-0.0	-0.0	-0.0	-0.0	233981.921875	19685.712890625	2641.919677734375
0.354	-0.0	-0.0	-0.0	-0.0	-0.0	-0.0	6.995420455932617	1.690090537071228	-756.422119140625	-0.0	-0.0	-0.0	-0.0	-0.0	-0.0	233432.703125	19401.80859375	2701.449951171875
0.3545	-0.0	-0.0	-0.0	-0.0	-0.0	-0.0	7.12076473236084	1.09893798828125	-754.74169921875	-0.0	-0.0	-0.0	-0.0	-0.0	-0.0	233140.0625	19453.888671875	2708.21728515625
0.355	-0.0	-0.0	-0.0	-0.0	-0.0	-0.0	7.4021806716918945	0.6872710585594177	-757.5318603515625	-0.0	-0.0	-0.0	-0.0	-0.0	-0.0	233003.546875	19279.244140625	2754.548828125
0.3555	-0.0	-0.0	-0.0	-0.0	-0.0	-0.0	7.696903228759766	-0.2232782244682312	-756.9194946289062	-0.0	-0.0	-0.0	-0.0	-0.0	-0.0	233051.40625	19164.509765625	2772.923828125
0.356	-0.0	-0.0	-0.0	-0.0	-0.0	-0.0	7.980012893676758	-0.0105818510055542	-756.9708862304688	-0.0	-0.0	-0.0	-0.0	-0.0	-0.0	232623.4375	19116.193359375	2733.472900390625
0.3565	-0.0	-0.0	-0.0	-0.0	-0.0	-0.0	7.626445770263672	-1.0721054077148438	-758.2835693359375	-0.0	-0.0	-0.0	-0.0	-0.0	-0.0	232555.796875	19258.513671875	2623.635009765625
0.357	-0.0	-0.0	-0.0	-0.0	-0.0	-0.0	7.1398773193359375	-1.7569944858551023	-756.8896484375	-0.0	-0.0	-0.0	-0.0	-0.0	-0.0	232328.703125	19762.810546875	2385.15478515625
0.3575	-0.0	-0.0	-0.0	-0.0	-0.0	-0.0	5.677490234375	-2.197150230407715	-756.2193603515625	-0.0	-0.0	-0.0	-0.0	-0.0	-0.0	231731.546875	20393.748046875	1811.156982421875
0.358	-0.0	-0.0	-0.0	-0.0	-0.0	-0.0	3.8173205852508554	-3.143714904785156	-753.4365844726562	-0.0	-0.0	-0.0	-0.0	-0.0	-0.0	231250.84375	20606.375	1239.002197265625
0.3585	-0.0	-0.0	-0.0	-0.0	-0.0	-0.0	3.1104226112365723	-3.212667942047119	-753.2830200195312	-0.0	-0.0	-0.0	-0.0	-0.0	-0.0	230698.75	21067.1328125	800.4389038085938
0.359	-0.0	-0.0	-0.0	-0.0	-0.0	-0.0	3.0105252265930176	-3.782386779785156	-751.1345825195312	-0.0	-0.0	-0.0	-0.0	-0.0	-0.0	230113.9375	21304.5546875	462.5174865722656
0.3595	-0.0	-0.0	-0.0	-0.0	-0.0	-0.0	2.855860710144043	-4.256481170654297	-749.7183837890625	-0.0	-0.0	-0.0	-0.0	-0.0	-0.0	229645.796875	21341.037109375	588.5074462890625
0.36	-0.0	-0.0	-0.0	-0.0	-0.0	-0.0	3.7036752700805664	-5.243661880493164	-748.947021484375	-0.0	-0.0	-0.0	-0.0	-0.0	-0.0	229690.125	21142.83203125	564.1708374023438
0.3605	-0.0	-0.0	-0.0	-0.0	-0.0	-0.0	4.388266563415527	-5.16684103012085	-751.2940673828125	-0.0	-0.0	-0.0	-0.0	-0.0	-0.0	230012.0625	21414.5390625	554.49169921875
0.361	-0.0	-0.0	-0.0	-0.0	-0.0	-0.0	4.97513484954834	-5.26691198348999	-752.7652587890625	-0.0	-0.0	-0.0	-0.0	-0.0	-0.0	230696.234375	21048.64453125	644.3992309570312
0.3615	-0.0	-0.0	-0.0	-0.0	-0.0	-0.0	6.050158500671387	-4.839945793151856	-754.399658203125	-0.0	-0.0	-0.0	-0.0	-0.0	-0.0	231586.859375	20998.892578125	944.3753662109376
0.362	-0.0	-0.0	-0.0	-0.0	-0.0	-0.0	7.096502780914307	-4.5754899978637695	-757.3558959960938	-0.0	-0.0	-0.0	-0.0	-0.0	-0.0	232438.015625	20999.28515625	986.8069458007812
0.3625	-0.0	-0.0	-0.0	-0.0	-0.0	-0.0	7.803598403930664	-4.289571762084961	-758.1873779296875	-0.0	-0.0	-0.0	-0.0	-0.0	-0.0	233220.5	21067.650390625	1039.688720703125
0.363	-0.0	-0.0	-0.0	-0.0	-0.0	-0.0	7.818014144897461	-4.745774269104004	-760.7739868164062	-0.0	-0.0	-0.0	-0.0	-0.0	-0.0	234035.28125	20982.30859375	800.1626586914062
0.3635	-0.0	-0.0	-0.0	-0.0	-0.0	-0.0	7.362995147705078	-4.504405975341797	-763.7491455078125	-0.0	-0.0	-0.0	-0.0	-0.0	-0.0	234625.015625	21214.36328125	431.7857666015625
0.364	-0.0	-0.0	-0.0	-0.0	-0.0	-0.0	6.428437232971191	-4.490100860595703	-763.9880981445312	-0.0	-0.0	-0.0	-0.0	-0.0	-0.0	235376.625	21497.609375	213.1496124267578
0.3645	-0.0	-0.0	-0.0	-0.0	-0.0	-0.0	5.484091758728027	-3.816653251647949	-766.2008056640625	-0.0	-0.0	-0.0	-0.0	-0.0	-0.0	236194.40625	22015.40234375	-177.15530395507812
0.365	-0.0	-0.0	-0.0	-0.0	-0.0	-0.0	4.5164103507995605	-2.72217321395874	-767.8528442382812	-0.0	-0.0	-0.0	-0.0	-0.0	-0.0	237200.75	22587.58203125	-645.2935180664062
0.3655	-0.0	-0.0	-0.0	-0.0	-0.0	-0.0	3.801731586456299	-1.2556673288345337	-769.555419921875	-0.0	-0.0	-0.0	-0.0	-0.0	-0.0	237891.9375	23275.787109375	-864.3086547851562
0.366	-0.0	-0.0	-0.0	-0.0	-0.0	-0.0	2.306480407714844	-1.3372458219528198	-769.0253295898438	-0.0	-0.0	-0.0	-0.0	-0.0	-0.0	237872.421875	24062.818359375	-1272.8111572265625
0.3665	-0.0	-0.0	-0.0	-0.0	-0.0	-0.0	0.5799034833908081	-1.5700809955596924	-768.3675537109375	-0.0	-0.0	-0.0	-0.0	-0.0	-0.0	237543.1875	24725.50390625	-1786.3310546875
0.367	-0.0	-0.0	-0.0	-0.0	-0.0	-0.0	-1.7256838083267212	-2.068167209625244	-765.6605834960938	-0.0	-0.0	-0.0	-0.0	-0.0	-0.0	237364.59375	25203.611328125	-2331.73974609375
0.3675	-0.0	-0.0	-0.0	-0.0	-0.0	-0.0	-2.914148330688477	-2.9764389991760254	-766.0386962890625	-0.0	-0.0	-0.0	-0.0	-0.0	-0.0	237559.125	25829.91015625	-2713.381103515625
0.368	-0.0	-0.0	-0.0	-0.0	-0.0	-0.0	-3.465137481689453	-3.4889883995056152	-768.5301513671875	-0.0	-0.0	-0.0	-0.0	-0.0	-0.0	237955.609375	26371.2421875	-2932.6904296875
0.3685	-0.0	-0.0	-0.0	-0.0	-0.0	-0.0	-3.96464729309082	-3.077756404876709	-769.7049560546875	-0.0	-0.0	-0.0	-0.0	-0.0	-0.0	238831.359375	26701.96875	-2927.76953125
0.369	-0.0	-0.0	-0.0	-0.0	-0.0	-0.0	-4.152347564697266	-2.508387804031372	-772.9342041015625	-0.0	-0.0	-0.0	-0.0	-0.0	-0.0	240008.140625	27063.822265625	-3030.4794921875
0.3695	-0.0	-0.0	-0.0	-0.0	-0.0	-0.0	-4.326169967651367	-1.0598602294921875	-775.2520751953125	-0.0	-0.0	-0.0	-0.0	-0.0	-0.0	240993.78125	27410.470703125	-2937.783203125
0.37	-0.0	-0.0	-0.0	-0.0	-0.0	-0.0	-4.239010810852051	-0.0628035590052604	-777.28515625	-0.0	-0.0	-0.0	-0.0	-0.0	-0.0	241911.390625	27434.8671875	-3155.71728515625
0.3705	-0.0	-0.0	-0.0	-0.0	-0.0	-0.0	-4.114465713500977	0.5230520963668823	-780.0323486328125	-0.0	-0.0	-0.0	-0.0	-0.0	-0.0	242960.796875	27611.65234375	-3041.036376953125
0.371	-0.0	-0.0	-0.0	-0.0	-0.0	-0.0	-3.811897039413452	1.2620865106582642	-783.503173828125	-0.0	-0.0	-0.0	-0.0	-0.0	-0.0	244189.78125	27915.509765625	-2857.828125
0.3715	-0.0	-0.0	-0.0	-0.0	-0.0	-0.0	-3.481149673461914	1.7522103786468506	-786.4862060546875	-0.0	-0.0	-0.0	-0.0	-0.0	-0.0	245805.671875	28050.97265625	-2864.10986328125
0.372	-0.0	-0.0	-0.0	-0.0	-0.0	-0.0	-3.444676399230957	2.617846965789795	-791.4208374023438	-0.0	-0.0	-0.0	-0.0	-0.0	-0.0	246745.0625	28165.90234375	-2820.47314453125
0.3725	-0.0	-0.0	-0.0	-0.0	-0.0	-0.0	-3.1827335357666016	3.209390163421631	-791.7156982421875	-0.0	-0.0	-0.0	-0.0	-0.0	-0.0	247419.109375	28306.314453125	-2554.976806640625
0.373	-0.0	-0.0	-0.0	-0.0	-0.0	-0.0	-3.1028318405151367	3.043393135070801	-792.5360717773438	-0.0	-0.0	-0.0	-0.0	-0.0	-0.0	247768.578125	28386.099609375	-2549.478271484375
0.3735	-0.0	-0.0	-0.0	-0.0	-0.0	-0.0	-3.681705951690674	3.069282293319702	-793.8260498046875	-0.0	-0.0	-0.0	-0.0	-0.0	-0.0	247656.453125	28667.306640625	-2392.184814453125
0.374	-0.0	-0.0	-0.0	-0.0	-0.0	-0.0	-3.829331398010254	2.377377510070801	-793.34521484375	-0.0	-0.0	-0.0	-0.0	-0.0	-0.0	248140.078125	28892.83984375	-2530.3916015625
0.3745	-0.0	-0.0	-0.0	-0.0	-0.0	-0.0	-4.298655033111572	2.42887806892395	-792.9080810546875	-0.0	-0.0	-0.0	-0.0	-0.0	-0.0	247839.859375	29330.8515625	-2685.75927734375
0.375	-0.0	-0.0	-0.0	-0.0	-0.0	-0.0	-4.933931827545166	2.4250919818878174	-792.1658325195312	-0.0	-0.0	-0.0	-0.0	-0.0	-0.0	247501.296875	29298.234375	-2680.217041015625
0.3755	-0.0	-0.0	-0.0	-0.0	-0.0	-0.0	-5.233936309814453	2.230726480484009	-791.556640625	-0.0	-0.0	-0.0	-0.0	-0.0	-0.0	247470.15625	29516.32421875	-2734.787109375
0.376	-0.0	-0.0	-0.0	-0.0	-0.0	-0.0	-5.313019752502441	2.28987979888916	-792.795654296875	-0.0	-0.0	-0.0	-0.0	-0.0	-0.0	247449.71875	29460.7890625	-2688.158203125
0.3765	-0.0	-0.0	-0.0	-0.0	-0.0	-0.0	-4.9620041847229	2.615074634552002	-791.9518432617188	-0.0	-0.0	-0.0	-0.0	-0.0	-0.0	247767.703125	29536.45703125	-2594.61279296875
0.377	-0.0	-0.0	-0.0	-0.0	-0.0	-0.0	-4.414247035980225	2.571872472763061	-793.4544677734375	-0.0	-0.0	-0.0	-0.0	-0.0	-0.0	248400.15625	29392.076171875	-2268.01171875
0.3775	-0.0	-0.0	-0.0	-0.0	-0.0	-0.0	-4.161594867706299	2.7040956020355225	-796.127197265625	-0.0	-0.0	-0.0	-0.0	-0.0	-0.0	248899.421875	29609.1953125	-2138.083740234375
